<svg xmlns="http://www.w3.org/2000/svg" xmlns:xlink="http://www.w3.org/1999/xlink" xmlns:fi="http://pattern.flaticon.com/" x="0" y="0" width="712" height="356" viewBox="0 0 712 356"><rect x="0px" y="0px" width="100%" height="100%" opacity="1" fill="#ffffff"/><defs><g transform="matrix(0.1171875 0 0 0.1171875 6 340)"><path d="M346,319c-5.522,0-10,4.477-10,10v69c0,27.57-22.43,50-50,50H178.032c-5.521,0-9.996,4.473-10,9.993l-0.014,19.882    l-23.868-23.867c-1.545-3.547-5.081-6.008-9.171-6.008H70c-27.57,0-50-22.43-50-50V244c0-27.57,22.43-50,50-50h101    c5.522,0,10-4.477,10-10s-4.478-10-10-10H70c-38.598,0-70,31.402-70,70v154c0,38.598,31.402,70,70,70h59.858l41.071,41.071    c1.913,1.913,4.47,2.929,7.073,2.929c1.287,0,2.586-0.249,3.821-0.76c3.737-1.546,6.174-5.19,6.177-9.233L188.024,468H286    c38.598,0,70-31.402,70-70v-69C356,323.477,351.522,319,346,319z" fill="#ffb03b"/><path d="M366.655,0h-25.309C261.202,0,196,65.202,196,145.346s65.202,145.345,145.345,145.345h25.309    c12.509,0,24.89-1.589,36.89-4.729l37.387,37.366c1.913,1.911,4.469,2.927,7.071,2.927c1.289,0,2.589-0.249,3.826-0.762    c3.736-1.548,6.172-5.194,6.172-9.238v-57.856c15.829-12.819,28.978-29.012,38.206-47.102    C506.687,190.751,512,168.562,512,145.346C512,65.202,446.798,0,366.655,0z M441.983,245.535    c-2.507,1.889-3.983,4.847-3.983,7.988v38.6l-24.471-24.458c-1.904-1.902-4.458-2.927-7.07-2.927c-0.98,0-1.97,0.145-2.936,0.442    c-11.903,3.658-24.307,5.512-36.868,5.512h-25.309c-69.117,0-125.346-56.23-125.346-125.346S272.23,20,341.346,20h25.309    C435.771,20,492,76.23,492,145.346C492,185.077,473.77,221.595,441.983,245.535z" fill="#ffb03b"/><path d="M399.033,109.421c-1.443-20.935-18.319-37.811-39.255-39.254c-11.868-0.815-23.194,3.188-31.863,11.281    c-8.55,7.981-13.453,19.263-13.453,30.954c0,5.523,4.478,10,10,10c5.522,0,10-4.477,10-10c0-6.259,2.522-12.06,7.1-16.333    c4.574-4.269,10.552-6.382,16.842-5.948c11.028,0.76,19.917,9.649,20.677,20.676c0.768,11.137-6.539,20.979-17.373,23.403    c-8.778,1.964-14.908,9.592-14.908,18.549v24.025c0,5.523,4.478,10,10,10c5.523,0,10-4.477,9.999-10v-23.226    C386.949,148.68,400.468,130.242,399.033,109.421z" fill="#ffb03b"/><path d="M363.87,209.26c-1.86-1.86-4.44-2.93-7.07-2.93s-5.21,1.07-7.07,2.93c-1.86,1.86-2.93,4.44-2.93,7.07    c0,2.64,1.071,5.22,2.93,7.08c1.86,1.86,4.44,2.92,7.07,2.92s5.21-1.06,7.07-2.92c1.86-1.87,2.93-4.44,2.93-7.08    C366.8,213.7,365.729,211.12,363.87,209.26z" fill="#ffb03b"/><path d="M275,310H64c-5.522,0-10,4.477-10,10s4.478,10,10,10h211c5.523,0,10-4.477,10-10S280.522,310,275,310z" fill="#ffb03b"/><path d="M282.069,368.93C280.21,367.07,277.63,366,275,366s-5.21,1.07-7.07,2.93c-1.861,1.86-2.93,4.44-2.93,7.07    s1.07,5.21,2.93,7.07c1.86,1.86,4.44,2.93,7.07,2.93s5.21-1.07,7.069-2.93c1.861-1.86,2.931-4.43,2.931-7.07    C285,373.37,283.929,370.79,282.069,368.93z" fill="#ffb03b"/><path d="M235.667,366H64c-5.522,0-10,4.477-10,10s4.478,10,10,10h171.667c5.523,0,10-4.477,10-10S241.189,366,235.667,366z" fill="#ffb03b"/><path d="M210,254H64c-5.522,0-10,4.477-10,10s4.478,10,10,10h146c5.523,0,10-4.477,10-10S215.522,254,210,254z" fill="#ffb03b"/></g><path d="m74.39 480.536h-36.213l25.607-25.607c13.807-13.807 22.429-31.765 24.747-51.246-36.029-23.644-62.375-54.751-76.478-90.425-14.093-35.647-15.864-74.888-5.121-113.482 12.89-46.309 43.123-88.518 85.128-118.853 45.646-32.963 102.47-50.387 164.33-50.387 77.927 0 143.611 22.389 189.948 64.745 41.744 38.159 64.734 89.63 64.734 144.933 0 26.868-5.471 53.011-16.26 77.703-11.165 25.551-27.514 48.302-48.593 67.619-46.399 42.523-112.042 65-189.83 65-28.877 0-59.01-3.855-85.913-10.929-25.465 26.123-59.972 40.929-96.086 40.929zm182-420c-124.039 0-200.15 73.973-220.557 147.285-19.284 69.28 9.143 134.743 76.043 175.115l7.475 4.511-.23 8.727c-.456 17.274-4.574 33.912-11.945 48.952 17.949-6.073 34.236-17.083 46.99-32.151l6.342-7.493 9.405 2.813c26.393 7.894 57.104 12.241 86.477 12.241 154.372 0 224.682-93.473 224.682-180.322 0-46.776-19.524-90.384-54.976-122.79-40.713-37.216-99.397-56.888-169.706-56.888z" transform="matrix(0.11740028858184814 0 0 0.11740028858184814 206 50.000002121001216)" id="L1_1" fill="#fff0a5"/><g transform="matrix(0.1171875 0 0 0.1171875 126.99999997070313 -24)" id="L1_2"><path d="m256 100c-5.519531 0-10 4.480469-10 10s4.480469 10 10 10 10-4.480469 10-10-4.480469-10-10-10zm0 0" fill="#b64926"/><path d="m90 280c5.519531 0 10-4.480469 10-10s-4.480469-10-10-10-10 4.480469-10 10 4.480469 10 10 10zm0 0" fill="#b64926"/><path d="m336 0c-90.027344 0-163.917969 62.070312-169.632812 140.253906-85.738282 4.300782-166.367188 66.125-166.367188 149.746094 0 34.945312 13.828125 68.804688 39 95.632812 4.980469 20.53125-1.066406 42.292969-16.070312 57.296876-2.859376 2.859374-3.714844 7.160156-2.167969 10.898437 1.546875 3.734375 5.191406 6.171875 9.238281 6.171875 28.519531 0 56.003906-11.183594 76.425781-30.890625 19.894531 6.78125 45.851563 10.890625 69.574219 10.890625 90.015625 0 163.898438-62.054688 169.628906-140.222656 20.9375-.929688 42.714844-4.796875 59.945313-10.667969 20.421875 19.707031 47.90625 30.890625 76.425781 30.890625 4.046875 0 7.691406-2.4375 9.238281-6.171875 1.546875-3.738281.691407-8.039063-2.167969-10.898437-15.003906-15.003907-21.050781-36.765626-16.070312-57.296876 25.171875-26.828124 39-60.6875 39-95.632812 0-86.886719-86.839844-150-176-150zm-160 420c-23.601562 0-50.496094-4.632812-68.511719-11.800781-3.859375-1.539063-8.269531-.527344-11.078125 2.539062-12.074218 13.199219-27.773437 22.402344-44.878906 26.632813 9.425781-18.058594 11.832031-39.347656 6.097656-59.519532-.453125-1.589843-1.292968-3.042968-2.445312-4.226562-22.6875-23.367188-35.183594-53.066406-35.183594-83.625 0-70.46875 71.4375-130 156-130 79.851562 0 150 55.527344 150 130 0 71.683594-67.289062 130-150 130zm280.816406-186.375c-1.152344 1.1875-1.992187 2.640625-2.445312 4.226562-5.734375 20.171876-3.328125 41.460938 6.097656 59.519532-17.105469-4.226563-32.804688-13.433594-44.878906-26.632813-2.808594-3.0625-7.21875-4.078125-11.078125-2.539062-15.613281 6.210937-37.886719 10.511719-58.914063 11.550781-2.921875-37.816406-21.785156-73.359375-54.035156-99.75h130.4375c5.523438 0 10-4.476562 10-10s-4.476562-10-10-10h-161.160156c-22.699219-11.554688-48.1875-18.292969-74.421875-19.707031 5.746093-67.164063 70.640625-120.292969 149.582031-120.292969 84.5625 0 156 59.53125 156 130 0 30.558594-12.496094 60.257812-35.183594 83.625zm0 0" fill="#b64926"/><path d="m256 260h-126c-5.523438 0-10 4.476562-10 10s4.476562 10 10 10h126c5.523438 0 10-4.476562 10-10s-4.476562-10-10-10zm0 0" fill="#b64926"/><path d="m256 320h-166c-5.523438 0-10 4.476562-10 10s4.476562 10 10 10h166c5.523438 0 10-4.476562 10-10s-4.476562-10-10-10zm0 0" fill="#b64926"/><path d="m422 100h-126c-5.523438 0-10 4.476562-10 10s4.476562 10 10 10h126c5.523438 0 10-4.476562 10-10s-4.476562-10-10-10zm0 0" fill="#b64926"/></g><g transform="matrix(0.1171875 0 0 0.1171875 261 122)" id="L1_3"><path d="m512 346.5c0-74.628906-50.285156-139.832031-121.195312-159.480469-4.457032-103.878906-90.347657-187.019531-195.304688-187.019531-107.800781 0-195.5 87.699219-195.5 195.5 0 35.132812 9.351562 69.339844 27.109375 99.371094l-26.390625 95.40625 95.410156-26.386719c27.605469 16.324219 58.746094 25.519531 90.886719 26.90625 19.644531 70.914063 84.851563 121.203125 159.484375 121.203125 29.789062 0 58.757812-7.933594 84.210938-23.007812l80.566406 22.285156-22.285156-80.566406c15.074218-25.453126 23.007812-54.421876 23.007812-84.210938zm-411.136719-15.046875-57.117187 15.800781 15.800781-57.117187-3.601563-5.632813c-16.972656-26.554687-25.945312-57.332031-25.945312-89.003906 0-91.257812 74.242188-165.5 165.5-165.5s165.5 74.242188 165.5 165.5-74.242188 165.5-165.5 165.5c-31.671875 0-62.445312-8.972656-89.003906-25.945312zm367.390625 136.800781-42.382812-11.726562-5.660156 3.683594c-21.941407 14.253906-47.433594 21.789062-73.710938 21.789062-58.65625 0-110.199219-37.925781-128.460938-92.308594 89.820313-10.355468 161.296876-81.832031 171.65625-171.65625 54.378907 18.265625 92.304688 69.808594 92.304688 128.464844 0 26.277344-7.535156 51.769531-21.789062 73.710938l-3.683594 5.660156zm0 0" fill="#ff2d00"/><path d="m180.5 271h30v30h-30zm0 0" fill="#ff2d00"/><path d="m225.5 150c0 8.519531-3.46875 16.382812-9.765625 22.144531l-35.234375 32.25v36.605469h30v-23.394531l25.488281-23.328125c12.398438-11.347656 19.511719-27.484375 19.511719-44.277344 0-33.085938-26.914062-60-60-60s-60 26.914062-60 60h30c0-16.542969 13.457031-30 30-30s30 13.457031 30 30zm0 0" fill="#ff2d00"/></g><g transform="matrix(0.11718475073575974 0 0 0.11718475073575974 173 216.00000077245807)" id="L1_4"><path d="m333.201 115.038c-28.905-59.021-89.37-98.042-157.193-98.042-97.047 0-176 78.505-176 175 0 26.224 5.63 51.359 16.742 74.794l-16.451 82.265c-2.094 10.472 7.144 19.728 17.618 17.656l83.279-16.465c11.213 5.319 22.813 9.364 34.732 12.151-26.717-126.541 69.199-245.321 197.273-247.359z" fill="#fff0a5"/><path d="m495.266 394.79c2.874-6.061 5.373-12.237 7.511-18.514h-.549c37.448-109.917-41.305-225.441-157.567-231.066-.002-.006-.003-.012-.005-.018-100.036-4.61-183.148 75.486-183.148 174.804 0 96.414 78.361 174.857 174.743 174.997 26.143-.035 51.201-5.663 74.568-16.747 91.207 18.032 84.094 16.75 86.189 16.75 9.479 0 16.56-8.686 14.709-17.941z" fill="#fff0a5"/></g><g transform="matrix(0.08543714694483788 -0.05187255209084356 0.05187255209084356 0.08543714694483788 31.83290088266159 125.38158656913964)" id="L1_5"><path d="M372.29,50.758H28.831C12.933,50.758,0,63.691,0,79.588v206.056c0,15.897,12.933,28.831,28.831,28.831h22.271v76.71    c0,4.884,2.942,9.289,7.456,11.159c1.494,0.62,3.064,0.92,4.62,0.92c3.144,0,6.232-1.228,8.543-3.538l85.251-85.25h17.104    c6.671,0,12.078-5.407,12.078-12.078c0-6.672-5.409-12.079-12.078-12.079c0,0-22.69,0.016-22.927,0.04    c-2.812,0.191-5.572,1.349-7.722,3.498l-68.169,68.169c0,0-0.021-60.392-0.06-60.705c-0.545-6.166-5.717-11.002-12.024-11.002    H28.831c-2.578,0-4.674-2.097-4.674-4.674V79.588c0-2.578,2.097-4.674,4.674-4.674H372.29c2.578,0,4.674,2.097,4.674,4.674v79.055    c0,6.671,5.409,12.078,12.078,12.078s12.078-5.407,12.078-12.078V79.588C401.12,63.691,388.187,50.758,372.29,50.758z" fill="#ff8c00"/><path d="M483.169,198.492H242.754c-15.897,0-28.831,12.933-28.831,28.831v140.57c0,15.897,12.933,28.831,28.831,28.831h150.514    l60.98,60.98c2.311,2.311,5.4,3.538,8.543,3.538c1.556,0,3.126-0.301,4.62-0.92c4.512-1.87,7.456-6.273,7.456-11.159v-52.44h8.301    c15.897,0,28.831-12.933,28.831-28.831V227.322C512,211.425,499.067,198.492,483.169,198.492z M487.844,367.893    c0,2.577-2.097,4.674-4.674,4.674h-20.376c-6.356,0-11.554,4.912-12.031,11.147c-0.031,0.264-0.051,36.29-0.051,36.29    l-43.854-43.855c-0.046-0.046-0.094-0.089-0.14-0.135c-0.172-0.168-0.335-0.314-0.489-0.445c-2.126-1.864-4.903-3.003-7.951-3.003    H242.754c-2.578,0-4.674-2.097-4.674-4.674v-140.57c0-2.578,2.097-4.674,4.674-4.674h240.416c2.577,0,4.674,2.097,4.674,4.674    V367.893z" fill="#ff8c00"/><path d="M362.964,285.53c-6.667,0-12.078,5.411-12.078,12.078c0,6.667,5.411,12.078,12.078,12.078    c6.668,0,12.078-5.411,12.078-12.078C375.042,290.941,369.631,285.53,362.964,285.53z" fill="#ff8c00"/><path d="M310.472,130.611c0,0-219.822,0-219.822,0c-6.67,0-12.078,5.407-12.078,12.078s5.409,12.078,12.078,12.078h219.822    c6.67,0,12.078-5.407,12.078-12.078S317.142,130.611,310.472,130.611z" fill="#ff8c00"/><path d="M174.075,210.465H90.65c-6.67,0-12.078,5.407-12.078,12.078c0,6.671,5.409,12.078,12.078,12.078h83.425    c6.671,0,12.078-5.407,12.078-12.078S180.745,210.465,174.075,210.465z" fill="#ff8c00"/><path d="M306.837,285.53c-6.666,0-12.078,5.411-12.078,12.078c0,6.667,5.412,12.078,12.078,12.078    c6.668,0,12.078-5.411,12.078-12.078C318.915,290.941,313.505,285.53,306.837,285.53z" fill="#ff8c00"/><path d="M419.079,285.53c-6.667,0-12.078,5.411-12.078,12.078c0,6.667,5.411,12.078,12.078,12.078    c6.668,0,12.078-5.411,12.078-12.078C431.157,290.941,425.746,285.53,419.079,285.53z" fill="#ff8c00"/></g><g transform="matrix(0.1171875 0 0 0.1171875 53.99999979972836 182.00000137329107)" id="L1_6"><path d="m268.892 281.541h-205.32c-4.142 0-7.5 3.357-7.5 7.5s3.358 7.5 7.5 7.5h205.319c4.143 0 7.5-3.358 7.5-7.5.001-4.143-3.357-7.5-7.499-7.5z" fill="#04756f"/><path d="m268.892 328.871h-205.32c-4.142 0-7.5 3.357-7.5 7.5s3.358 7.5 7.5 7.5h205.319c4.143 0 7.5-3.357 7.5-7.5.001-4.143-3.357-7.5-7.499-7.5z" fill="#04756f"/><path d="m166.232 376.201h-102.66c-4.142 0-7.5 3.358-7.5 7.5 0 4.143 3.358 7.5 7.5 7.5h102.66c4.142 0 7.5-3.357 7.5-7.5s-3.358-7.5-7.5-7.5z" fill="#04756f"/><path d="m466.209 186.88h-205.32c-4.142 0-7.5 3.357-7.5 7.5s3.358 7.5 7.5 7.5h205.32c4.143 0 7.5-3.357 7.5-7.5s-3.357-7.5-7.5-7.5z" fill="#04756f"/><path d="m466.209 234.21h-102.66c-4.143 0-7.5 3.357-7.5 7.5s3.357 7.5 7.5 7.5h102.66c4.143 0 7.5-3.357 7.5-7.5s-3.357-7.5-7.5-7.5z" fill="#04756f"/><path d="m46.45 57.269h150.003c4.142 0 7.5-3.357 7.5-7.5s-3.358-7.5-7.5-7.5h-150.003c-4.142 0-7.5 3.357-7.5 7.5s3.358 7.5 7.5 7.5z" fill="#04756f"/><path d="m46.45 94.767h75.001c4.142 0 7.5-3.357 7.5-7.5s-3.358-7.5-7.5-7.5h-75.001c-4.142 0-7.5 3.357-7.5 7.5s3.358 7.5 7.5 7.5z" fill="#04756f"/><path d="m284.041 225.624h-235.619c-26.691 0-48.407 21.715-48.407 48.407v121.698c0 26.692 21.715 48.407 48.407 48.407h1.691l-9.693 53.819c-.916 5.087 1.525 10.155 6.074 12.609 4.605 2.484 10.172 1.668 13.873-1.847l66.367-62.999c1.075-1.021 2.482-1.582 3.964-1.582h153.342c26.692 0 48.407-21.715 48.407-48.407v-121.698c.002-26.692-21.714-48.407-48.406-48.407zm33.407 170.105c0 18.42-14.987 33.407-33.407 33.407h-153.342c-5.342 0-10.417 2.025-14.292 5.703l-59.561 56.538 8.416-46.727c1.457-8.089-4.764-15.515-12.97-15.515h-3.87c-18.42 0-33.406-14.987-33.406-33.407v-121.697c0-18.42 14.986-33.407 33.406-33.407h235.619c18.42 0 33.407 14.987 33.407 33.407z" fill="#04756f"/><path d="m29.436 133.41h55.94c.115 0 .222.062.279.16l23.893 41.25c2.488 4.297 6.939 6.862 11.904 6.862 4.966 0 9.416-2.565 11.905-6.862l23.892-41.249c.058-.1.165-.161.28-.161h55.939c16.01 0 29.034-13.025 29.034-29.035v-75.341c-.001-16.009-13.025-29.034-29.035-29.034h-184.031c-16.009 0-29.034 13.025-29.034 29.034v3.169c0 4.143 3.358 7.5 7.5 7.5s7.5-3.357 7.5-7.5v-3.169c.001-7.739 6.296-14.034 14.034-14.034h184.031c7.738 0 14.034 6.295 14.034 14.033v75.341c0 7.738-6.296 14.034-14.034 14.034h-55.939c-5.448 0-10.529 2.929-13.26 7.643l-22.817 39.392-22.816-39.392c-2.731-4.714-7.811-7.643-13.26-7.643h-55.94c-7.738 0-14.033-6.296-14.033-14.034v-37.111c0-4.143-3.358-7.5-7.5-7.5s-7.5 3.357-7.5 7.5v37.112c0 16.01 13.025 29.035 29.034 29.035z" fill="#04756f"/><path d="m468.16 140.754h-209.223c-24.165 0-43.824 19.66-43.824 43.824v13.486c0 4.143 3.358 7.5 7.5 7.5s7.5-3.357 7.5-7.5v-13.486c0-15.894 12.93-28.824 28.823-28.824h209.224c15.894 0 28.824 12.93 28.824 28.824v106.649c0 15.894-12.93 28.824-28.824 28.824h-3.437c-7.824 0-13.728 7.079-12.344 14.765l7.018 38.969-51.027-48.438c-3.596-3.415-8.309-5.296-13.27-5.296h-35.091c-4.143 0-7.5 3.357-7.5 7.5s3.357 7.5 7.5 7.5h35.091c1.1 0 2.145.417 2.942 1.174l58.931 55.942c3.584 3.401 8.929 4.129 13.298 1.769 4.36-2.353 6.698-7.21 5.819-12.084l-8.428-46.8h.497c24.165 0 43.824-19.66 43.824-43.824v-106.65c.001-24.165-19.658-43.824-43.823-43.824z" fill="#04756f"/></g><g transform="matrix(0.1171875 0 0 0.1171875 289 224)" id="L1_7"><path d="m457 80h-15v-35c0-24.813-20.187-45-45-45s-45 20.187-45 45v12.285c0 15.544-10.438 29.383-25.385 33.653l-14.615 4.176v-.114c0-8.284-6.716-15-15-15h-60c-8.284 0-15 6.716-15 15v67h-177c-24.813 0-45 20.187-45 45v290c0 5.532 3.045 10.615 7.922 13.225 2.218 1.188 4.65 1.775 7.077 1.775 2.91 0 5.812-.846 8.321-2.52l56.222-37.48h285.458c24.813 0 45-20.187 45-45v-157h47c30.327 0 55-24.673 55-55v-80c0-30.327-24.673-55-55-55zm-205 30h30v130h-30zm128 317c0 8.271-6.729 15-15 15h-290c-2.961 0-5.856.877-8.32 2.52l-36.68 24.453v-261.973c0-8.271 6.729-15 15-15h177v63c0 8.284 6.716 15 15 15h60c7.706 0 14.048-5.814 14.896-13.293 13.363 8.522 29.075 13.293 45.415 13.293h22.689zm102-212c0 13.785-11.215 25-25 25h-99.689c-18.238 0-35.271-9.201-45.311-24.246v-89.439l22.856-6.53c27.758-7.931 47.144-33.632 47.144-62.5v-12.285c0-8.271 6.729-15 15-15s15 6.729 15 15v50c0 8.284 6.716 15 15 15h30c13.785 0 25 11.215 25 25z" fill="#f2594b"/><path d="m75 282h100c8.284 0 15-6.716 15-15s-6.716-15-15-15h-100c-8.284 0-15 6.716-15 15s6.716 15 15 15z" fill="#f2594b"/><path d="m335 312h-260c-8.284 0-15 6.716-15 15s6.716 15 15 15h260c8.284 0 15-6.716 15-15s-6.716-15-15-15z" fill="#f2594b"/><path d="m335 372h-260c-8.284 0-15 6.716-15 15s6.716 15 15 15h260c8.284 0 15-6.716 15-15s-6.716-15-15-15z" fill="#f2594b"/></g><g transform="matrix(0.1171875 0 0 0.1171875 133 72)"><path d="m457 80h-15v-35c0-24.813-20.187-45-45-45s-45 20.187-45 45v12.285c0 15.544-10.438 29.383-25.385 33.653l-14.615 4.176v-.114c0-8.284-6.716-15-15-15h-60c-8.284 0-15 6.716-15 15v67h-177c-24.813 0-45 20.187-45 45v290c0 5.532 3.045 10.615 7.922 13.225 2.218 1.188 4.65 1.775 7.077 1.775 2.91 0 5.812-.846 8.321-2.52l56.222-37.48h285.458c24.813 0 45-20.187 45-45v-157h47c30.327 0 55-24.673 55-55v-80c0-30.327-24.673-55-55-55zm-205 30h30v130h-30zm128 317c0 8.271-6.729 15-15 15h-290c-2.961 0-5.856.877-8.32 2.52l-36.68 24.453v-261.973c0-8.271 6.729-15 15-15h177v63c0 8.284 6.716 15 15 15h60c7.706 0 14.048-5.814 14.896-13.293 13.363 8.522 29.075 13.293 45.415 13.293h22.689zm102-212c0 13.785-11.215 25-25 25h-99.689c-18.238 0-35.271-9.201-45.311-24.246v-89.439l22.856-6.53c27.758-7.931 47.144-33.632 47.144-62.5v-12.285c0-8.271 6.729-15 15-15s15 6.729 15 15v50c0 8.284 6.716 15 15 15h30c13.785 0 25 11.215 25 25z" fill="#f2594b"/><path d="m75 282h100c8.284 0 15-6.716 15-15s-6.716-15-15-15h-100c-8.284 0-15 6.716-15 15s6.716 15 15 15z" fill="#f2594b"/><path d="m335 312h-260c-8.284 0-15 6.716-15 15s6.716 15 15 15h260c8.284 0 15-6.716 15-15s-6.716-15-15-15z" fill="#f2594b"/><path d="m335 372h-260c-8.284 0-15 6.716-15 15s6.716 15 15 15h260c8.284 0 15-6.716 15-15s-6.716-15-15-15z" fill="#f2594b"/></g><g transform="matrix(0.1256544440984726 0 0 0.1256544440984726 282 314)" id="L1_8"><path d="M407.533,70c-45.1-45.1-105-70-168.8-70s-123.7,24.8-168.8,69.9c-87,87-93.3,226-15.8,320.2    c-10.7,21.9-23.4,36.5-37.6,43.5c-8.7,4.3-13.6,13.7-12.2,23.3c1.5,9.7,8.9,17.2,18.6,18.7c5.3,0.8,11,1.3,16.9,1.3l0,0    c29.3,0,60.1-10.1,85.8-27.8c34.6,18.6,73.5,28.4,113.1,28.4c63.8,0,123.7-24.8,168.8-69.9s69.9-105.1,69.9-168.8    S452.633,115.1,407.533,70z M388.433,388.5c-40,40-93.2,62-149.7,62c-37.8,0-74.9-10.1-107.2-29.1c-2.1-1.2-4.5-1.9-6.8-1.9    c-2.9,0-5.9,1-8.3,2.8c-30.6,23.7-61.4,27.2-74.9,27.5c16.1-12,29.6-30.6,40.9-56.5c2.1-4.8,1.2-10.4-2.3-14.4    c-74-83.6-70.1-211,8.9-290c40-40,93.2-62,149.7-62c56.6,0,109.7,22,149.7,62C471.033,171.6,471.033,306,388.433,388.5z" fill="#ffb03b"/><path d="M299.333,129.4c-21.6,0-41.9,8.4-57.2,23.7l-3.4,3.4l-3.4-3.4c-15.3-15.3-35.6-23.7-57.2-23.7c-21.5,0-41.8,8.4-57,23.6    c-15.3,15.3-23.7,35.6-23.6,57.1c0,21.6,8.5,41.8,23.7,57.1l107.9,107.9c2.6,2.6,6.1,4,9.5,4s6.9-1.3,9.5-3.9l108.2-107.8    c15.3-15.3,23.7-35.6,23.7-57.1c0-21.6-8.4-41.9-23.6-57.2C341.133,137.8,320.833,129.4,299.333,129.4z M337.233,248.3l-98.6,98.2    l-98.4-98.4c-10.2-10.2-15.8-23.7-15.8-38.1c0-14.4,5.6-27.9,15.7-38c10.1-10.1,23.6-15.7,38-15.7s27.9,5.6,38.1,15.8l13,13    c5.3,5.3,13.8,5.3,19.1,0l12.9-12.9c10.2-10.2,23.7-15.8,38.1-15.8c14.3,0,27.8,5.6,38,15.8s15.8,23.7,15.7,38    C353.033,224.6,347.433,238.1,337.233,248.3z" fill="#ffb03b"/></g><g transform="matrix(-0.08603054285049438 0 0 0.08603054285049438 82.48686938732862 238.4503004476428)"><path d="M407.533,70c-45.1-45.1-105-70-168.8-70s-123.7,24.8-168.8,69.9c-87,87-93.3,226-15.8,320.2    c-10.7,21.9-23.4,36.5-37.6,43.5c-8.7,4.3-13.6,13.7-12.2,23.3c1.5,9.7,8.9,17.2,18.6,18.7c5.3,0.8,11,1.3,16.9,1.3l0,0    c29.3,0,60.1-10.1,85.8-27.8c34.6,18.6,73.5,28.4,113.1,28.4c63.8,0,123.7-24.8,168.8-69.9s69.9-105.1,69.9-168.8    S452.633,115.1,407.533,70z M388.433,388.5c-40,40-93.2,62-149.7,62c-37.8,0-74.9-10.1-107.2-29.1c-2.1-1.2-4.5-1.9-6.8-1.9    c-2.9,0-5.9,1-8.3,2.8c-30.6,23.7-61.4,27.2-74.9,27.5c16.1-12,29.6-30.6,40.9-56.5c2.1-4.8,1.2-10.4-2.3-14.4    c-74-83.6-70.1-211,8.9-290c40-40,93.2-62,149.7-62c56.6,0,109.7,22,149.7,62C471.033,171.6,471.033,306,388.433,388.5z" fill="#ffb03b"/><path d="M299.333,129.4c-21.6,0-41.9,8.4-57.2,23.7l-3.4,3.4l-3.4-3.4c-15.3-15.3-35.6-23.7-57.2-23.7c-21.5,0-41.8,8.4-57,23.6    c-15.3,15.3-23.7,35.6-23.6,57.1c0,21.6,8.5,41.8,23.7,57.1l107.9,107.9c2.6,2.6,6.1,4,9.5,4s6.9-1.3,9.5-3.9l108.2-107.8    c15.3-15.3,23.7-35.6,23.7-57.1c0-21.6-8.4-41.9-23.6-57.2C341.133,137.8,320.833,129.4,299.333,129.4z M337.233,248.3l-98.6,98.2    l-98.4-98.4c-10.2-10.2-15.8-23.7-15.8-38.1c0-14.4,5.6-27.9,15.7-38c10.1-10.1,23.6-15.7,38-15.7s27.9,5.6,38.1,15.8l13,13    c5.3,5.3,13.8,5.3,19.1,0l12.9-12.9c10.2-10.2,23.7-15.8,38.1-15.8c14.3,0,27.8,5.6,38,15.8s15.8,23.7,15.7,38    C353.033,224.6,347.433,238.1,337.233,248.3z" fill="#ffb03b"/></g><g transform="matrix(0.06990176439285278 0 0 0.06990176439285278 109.1051848774074 67.08156445994973)" id="L1_9"><path d="M412.41,0H99.589C47.531,0,5.332,42.201,5.332,94.257v205.172c0,52.057,42.201,94.257,94.257,94.257  h44.894c2.136,0,3.867,1.731,3.867,3.867v101.207c0,11.966,14.637,17.768,22.834,9.05l106.188-112.906  c0.731-0.778,1.751-1.218,2.818-1.218h132.22c52.057,0,94.257-42.201,94.257-94.257V94.257C506.667,42.201,464.466,0,412.41,0z" fill="#ec5569"/><path d="M188.005,358.509c0-2.249-1.676-4.072-3.744-4.072h-43.462c-50.396,0-91.25-44.439-91.25-99.257  V39.123c0-9.276,1.174-18.253,3.361-26.77C24.489,28.587,5.332,59.184,5.332,94.257v205.172c0,52.056,42.201,94.257,94.257,94.257  h44.894c2.136,0,3.867,1.732,3.867,3.867v101.207c0,11.966,14.637,17.768,22.834,9.05l16.82-17.885V358.509H188.005z" fill="#e63950"/><path d="M361.908,122.325L361.908,122.325c-23.931-23.931-62.731-23.931-86.663,0l-13.518,13.518  c-3.223,3.223-8.45,3.223-11.673,0l-13.302-13.302c-23.931-23.931-62.731-23.931-86.663,0l0,0  c-23.931,23.931-23.931,62.731,0,86.663l99.973,99.973c3.223,3.223,8.45,3.223,11.673,0l100.172-100.189  C385.839,185.056,385.839,146.257,361.908,122.325z" fill="#ec5569"/><path d="M361.908,122.325L361.908,122.325c-23.931-23.931-62.731-23.931-86.663,0l-13.518,13.518  c-3.223,3.223-8.45,3.223-11.673,0l-13.302-13.302c-23.931-23.931-62.731-23.931-86.663,0l0,0  c-23.931,23.931-23.931,62.731,0,86.663l99.973,99.973c3.223,3.223,8.45,3.223,11.673,0l100.172-100.189  C385.839,185.056,385.839,146.257,361.908,122.325z" fill="#fff5f5"/><path d="M182.145,209.204c-23.931-23.931-23.931-62.731,0-86.663l0,0c7.85-7.85,17.304-13.108,27.303-15.807  c-20.486-5.532-43.278-0.274-59.358,15.807l0,0c-23.931,23.931-23.931,62.731,0,86.663l99.973,99.973  c3.223,3.223,8.45,3.223,11.673,0l10.19-10.192L182.145,209.204z" fill="#dce6eb"/></g><g transform="matrix(0.09943688758150404 -0.030383494288671816 0.030383494288671816 0.09943688758150404 170.76598224123498 164.32233131703495)" id="L1_10"><path d="M181.72,366.814c-0.723-0.206-1.463-0.322-2.208-0.362c10.954-11.513,17.7-27.066,17.7-44.174v-52.611    c0-0.481-0.046-0.95-0.111-1.412c0.066-0.95,0.111-1.906,0.111-2.872v-33.286c0-5.523-4.477-10-10-10h-67.073    c-28.245,0-51.223,22.979-51.223,51.223v48.958c0,17.108,6.745,32.661,17.7,44.174c-0.744,0.04-1.484,0.156-2.206,0.362    C37.153,371.093,0,410.924,0,459.276V502c0,5.523,4.477,10,10,10h246.127c5.523,0,10-4.477,10-10v-42.724    C266.127,410.925,228.976,371.094,181.72,366.814z M88.916,286.001v-12.682c0-17.216,14.007-31.223,31.223-31.223h57.073v23.286    c0,11.723-9.537,21.26-21.26,21.26H88.916V286.001z M88.916,306.642h67.036c7.772,0,15.047-2.162,21.26-5.914v21.549    c0,24.343-19.805,44.148-44.148,44.148c-24.343,0-44.148-19.805-44.148-44.148V306.642z M154.829,386.426l-21.765,21.766    l-21.765-21.766H154.829z M246.128,492L246.128,492H20v-20h41.5c5.523,0,10-4.477,10-10s-4.477-10-10-10H20.365    c3.359-33.716,29.806-60.717,63.255-64.969l42.373,42.373c1.875,1.875,4.419,2.929,7.071,2.929c2.652,0,5.196-1.054,7.071-2.929    l42.373-42.373c35.824,4.553,63.62,35.204,63.62,72.245V492z"/><path d="M427.595,144.718c-0.723-0.206-1.464-0.322-2.21-0.362c10.954-11.513,17.699-27.066,17.699-44.174V47.57    c0-0.481-0.046-0.95-0.111-1.412c0.066-0.95,0.111-1.906,0.111-2.872V10c0-5.523-4.477-10-10-10h-67.073    c-28.245,0-51.223,22.979-51.223,51.223v48.958c0,17.108,6.745,32.661,17.699,44.174c-0.745,0.04-1.487,0.156-2.21,0.362    c-47.255,4.281-84.405,44.112-84.405,92.462v42.723c0,5.523,4.477,10,10,10h80.46c5.523,0,10-4.477,10-10s-4.477-10-10-10h-70.46    V237.18c0-37.041,27.795-67.692,63.619-72.245l42.373,42.373c1.953,1.953,4.512,2.929,7.071,2.929s5.119-0.976,7.071-2.929    l42.373-42.373C464.205,169.489,492,200.139,492,237.18v32.723h-73.667c-5.523,0-10,4.477-10,10s4.477,10,10,10H502    c5.523,0,10-4.477,10-10V237.18C512,188.83,474.849,148.999,427.595,144.718z M378.937,186.095l-21.765-21.765h43.53    L378.937,186.095z M423.085,100.181c0,24.343-19.805,44.148-44.148,44.148s-44.148-19.804-44.148-44.147V84.546h67.036    c7.772,0,15.047-2.163,21.26-5.914V100.181z M423.085,43.286c0,11.723-9.537,21.26-21.26,21.26h-67.036v-0.641V51.223    c0-17.216,14.007-31.223,31.223-31.223h57.073V43.286z"/><path d="M386.01,272.83c-1.86-1.86-4.44-2.93-7.07-2.93c-2.64,0-5.21,1.07-7.07,2.93c-1.87,1.86-2.93,4.44-2.93,7.07    c0,2.64,1.06,5.21,2.93,7.07c1.86,1.87,4.43,2.93,7.07,2.93c2.63,0,5.21-1.06,7.07-2.93c1.86-1.86,2.93-4.43,2.93-7.07    C388.94,277.27,387.87,274.69,386.01,272.83z"/><path d="M267.405,139.929l-41.821-41.821V50c0-27.57-22.43-50-50-50H50C22.43,0,0,22.43,0,50v88c0,27.57,22.43,50,50,50h125.583    c20.674,0,38.702-12.407,46.266-31h38.484c4.044,0,7.691-2.437,9.239-6.173C271.12,147.091,270.264,142.789,267.405,139.929z     M214.554,137c-4.659,0-8.701,3.217-9.746,7.758C201.66,158.442,189.643,168,175.583,168H50c-16.542,0-30-13.458-30-30V50    c0-16.542,13.458-30,30-30h125.583c16.542,0,30,13.458,30,30v52.25c0,2.652,1.054,5.196,2.929,7.071L236.191,137H214.554z"/><path d="M462,324H336.417c-20.674,0-38.702,12.407-46.266,31h-38.484c-4.044,0-7.691,2.437-9.239,6.173    c-1.548,3.736-0.692,8.038,2.167,10.898l41.821,41.821V462c0,27.57,22.43,50,50,50H462c27.57,0,50-22.43,50-50v-88    C512,346.43,489.57,324,462,324z M492,462c0,16.542-13.458,30-30,30H336.417c-16.542,0-30-13.458-30-30v-52.25    c0-2.652-1.054-5.196-2.929-7.071L275.809,375h21.637c4.659,0,8.701-3.217,9.746-7.758C310.34,353.558,322.357,344,336.417,344    H462c16.542,0,30,13.458,30,30V462z"/><path d="M444.156,391.392c-3.904-3.905-10.236-3.905-14.141,0l-26.583,26.583l-12.361-12.361c-3.905-3.905-10.237-3.905-14.143,0    c-3.905,3.905-3.905,10.237,0,14.143l19.432,19.432c1.953,1.953,4.512,2.929,7.071,2.929s5.119-0.976,7.071-2.929l33.654-33.654    C448.061,401.63,448.061,395.298,444.156,391.392z"/><path d="M158.253,66.268c-1.182-17.147-15.004-30.969-32.151-32.151c-9.723-0.669-18.991,2.611-26.091,9.239    c-7.001,6.535-11.017,15.775-11.017,25.349c0.001,5.524,4.478,10.001,10.001,10.001s10-4.477,10-10    c0-4.111,1.656-7.921,4.664-10.729c3.003-2.804,6.938-4.196,11.069-3.906c7.239,0.499,13.074,6.334,13.573,13.573    c0.505,7.319-4.293,13.787-11.408,15.379c-7.788,1.742-13.227,8.513-13.227,16.465v5.335c0,5.523,4.477,10,10,10s10-4.477,10-10    v-2.91C149.16,97.291,159.385,82.684,158.253,66.268z"/><path d="M130.74,136.02c-1.86-1.86-4.44-2.93-7.07-2.93c-2.64,0-5.21,1.07-7.07,2.93c-1.87,1.86-2.93,4.44-2.93,7.07    s1.06,5.21,2.93,7.07c1.86,1.86,4.43,2.93,7.07,2.93c2.63,0,5.21-1.07,7.07-2.93c1.86-1.86,2.93-4.44,2.93-7.07    S132.6,137.88,130.74,136.02z"/><path d="M108.57,454.93c-1.86-1.86-4.44-2.93-7.07-2.93s-5.21,1.07-7.07,2.93s-2.93,4.44-2.93,7.07s1.07,5.21,2.93,7.07    c1.86,1.86,4.44,2.93,7.07,2.93s5.21-1.07,7.07-2.93s2.93-4.44,2.93-7.07S110.43,456.79,108.57,454.93z"/></g></defs><g fi:class="KUsePattern" transform="matrix(1 0 0 1 20 20)" opacity="0.74"><pattern id="pattern_UNKNOWN" width="350" height="350" patternUnits="userSpaceOnUse"><use xlink:href="#UNKNOWN" x="-350" y="-350"/><use xlink:href="#UNKNOWN" x="0" y="-350"/><use xlink:href="#UNKNOWN" x="350" y="-350"/><use xlink:href="#UNKNOWN" x="-350" y="0"/><use xlink:href="#UNKNOWN" x="0" y="0"/><use xlink:href="#UNKNOWN" x="350" y="0"/><use xlink:href="#UNKNOWN" x="-350" y="350"/><use xlink:href="#UNKNOWN" x="0" y="350"/><use xlink:href="#UNKNOWN" x="350" y="350"/></pattern><rect x="0" y="0" width="100%" height="100%" fill="url(#pattern_UNKNOWN)"/></g><g fi:class="KUsePattern" opacity="0.83"><pattern id="pattern_L1_1" width="350" height="350" patternUnits="userSpaceOnUse"><use xlink:href="#L1_1" x="-350" y="-350"/><use xlink:href="#L1_1" x="0" y="-350"/><use xlink:href="#L1_1" x="350" y="-350"/><use xlink:href="#L1_1" x="-350" y="0"/><use xlink:href="#L1_1" x="0" y="0"/><use xlink:href="#L1_1" x="350" y="0"/><use xlink:href="#L1_1" x="-350" y="350"/><use xlink:href="#L1_1" x="0" y="350"/><use xlink:href="#L1_1" x="350" y="350"/></pattern><rect x="0" y="0" width="100%" height="100%" fill="url(#pattern_L1_1)"/></g><g fi:class="KUsePattern" opacity="0.58"><pattern id="pattern_L1_2" width="350" height="350" patternUnits="userSpaceOnUse"><use xlink:href="#L1_2" x="-350" y="-350"/><use xlink:href="#L1_2" x="0" y="-350"/><use xlink:href="#L1_2" x="350" y="-350"/><use xlink:href="#L1_2" x="-350" y="0"/><use xlink:href="#L1_2" x="0" y="0"/><use xlink:href="#L1_2" x="350" y="0"/><use xlink:href="#L1_2" x="-350" y="350"/><use xlink:href="#L1_2" x="0" y="350"/><use xlink:href="#L1_2" x="350" y="350"/></pattern><rect x="0" y="0" width="100%" height="100%" fill="url(#pattern_L1_2)"/></g><g fi:class="KUsePattern" opacity="0.61"><pattern id="pattern_L1_3" width="350" height="350" patternUnits="userSpaceOnUse"><use xlink:href="#L1_3" x="-350" y="-350"/><use xlink:href="#L1_3" x="0" y="-350"/><use xlink:href="#L1_3" x="350" y="-350"/><use xlink:href="#L1_3" x="-350" y="0"/><use xlink:href="#L1_3" x="0" y="0"/><use xlink:href="#L1_3" x="350" y="0"/><use xlink:href="#L1_3" x="-350" y="350"/><use xlink:href="#L1_3" x="0" y="350"/><use xlink:href="#L1_3" x="350" y="350"/></pattern><rect x="0" y="0" width="100%" height="100%" fill="url(#pattern_L1_3)"/></g><g fi:class="KUsePattern" opacity="0.56"><pattern id="pattern_L1_4" width="350" height="350" patternUnits="userSpaceOnUse"><use xlink:href="#L1_4" x="-350" y="-350"/><use xlink:href="#L1_4" x="0" y="-350"/><use xlink:href="#L1_4" x="350" y="-350"/><use xlink:href="#L1_4" x="-350" y="0"/><use xlink:href="#L1_4" x="0" y="0"/><use xlink:href="#L1_4" x="350" y="0"/><use xlink:href="#L1_4" x="-350" y="350"/><use xlink:href="#L1_4" x="0" y="350"/><use xlink:href="#L1_4" x="350" y="350"/></pattern><rect x="0" y="0" width="100%" height="100%" fill="url(#pattern_L1_4)"/></g><g fi:class="KUsePattern" opacity="0.77"><pattern id="pattern_L1_5" width="350" height="350" patternUnits="userSpaceOnUse"><use xlink:href="#L1_5" x="-350" y="-350"/><use xlink:href="#L1_5" x="0" y="-350"/><use xlink:href="#L1_5" x="350" y="-350"/><use xlink:href="#L1_5" x="-350" y="0"/><use xlink:href="#L1_5" x="0" y="0"/><use xlink:href="#L1_5" x="350" y="0"/><use xlink:href="#L1_5" x="-350" y="350"/><use xlink:href="#L1_5" x="0" y="350"/><use xlink:href="#L1_5" x="350" y="350"/></pattern><rect x="0" y="0" width="100%" height="100%" fill="url(#pattern_L1_5)"/></g><g fi:class="KUsePattern" opacity="0.67"><pattern id="pattern_L1_6" width="350" height="350" patternUnits="userSpaceOnUse"><use xlink:href="#L1_6" x="-350" y="-350"/><use xlink:href="#L1_6" x="0" y="-350"/><use xlink:href="#L1_6" x="350" y="-350"/><use xlink:href="#L1_6" x="-350" y="0"/><use xlink:href="#L1_6" x="0" y="0"/><use xlink:href="#L1_6" x="350" y="0"/><use xlink:href="#L1_6" x="-350" y="350"/><use xlink:href="#L1_6" x="0" y="350"/><use xlink:href="#L1_6" x="350" y="350"/></pattern><rect x="0" y="0" width="100%" height="100%" fill="url(#pattern_L1_6)"/></g><g fi:class="KUsePattern" opacity="0.56"><pattern id="pattern_L1_7" width="350" height="350" patternUnits="userSpaceOnUse"><use xlink:href="#L1_7" x="-350" y="-350"/><use xlink:href="#L1_7" x="0" y="-350"/><use xlink:href="#L1_7" x="350" y="-350"/><use xlink:href="#L1_7" x="-350" y="0"/><use xlink:href="#L1_7" x="0" y="0"/><use xlink:href="#L1_7" x="350" y="0"/><use xlink:href="#L1_7" x="-350" y="350"/><use xlink:href="#L1_7" x="0" y="350"/><use xlink:href="#L1_7" x="350" y="350"/></pattern><rect x="0" y="0" width="100%" height="100%" fill="url(#pattern_L1_7)"/></g><g fi:class="KUsePattern" transform="matrix(1 0 0 1 20 20)" opacity="0.56"><pattern id="pattern_UNKNOWN" width="350" height="350" patternUnits="userSpaceOnUse"><use xlink:href="#UNKNOWN" x="-350" y="-350"/><use xlink:href="#UNKNOWN" x="0" y="-350"/><use xlink:href="#UNKNOWN" x="350" y="-350"/><use xlink:href="#UNKNOWN" x="-350" y="0"/><use xlink:href="#UNKNOWN" x="0" y="0"/><use xlink:href="#UNKNOWN" x="350" y="0"/><use xlink:href="#UNKNOWN" x="-350" y="350"/><use xlink:href="#UNKNOWN" x="0" y="350"/><use xlink:href="#UNKNOWN" x="350" y="350"/></pattern><rect x="0" y="0" width="100%" height="100%" fill="url(#pattern_UNKNOWN)"/></g><g fi:class="KUsePattern" opacity="0.55"><pattern id="pattern_L1_8" width="350" height="350" patternUnits="userSpaceOnUse"><use xlink:href="#L1_8" x="-350" y="-350"/><use xlink:href="#L1_8" x="0" y="-350"/><use xlink:href="#L1_8" x="350" y="-350"/><use xlink:href="#L1_8" x="-350" y="0"/><use xlink:href="#L1_8" x="0" y="0"/><use xlink:href="#L1_8" x="350" y="0"/><use xlink:href="#L1_8" x="-350" y="350"/><use xlink:href="#L1_8" x="0" y="350"/><use xlink:href="#L1_8" x="350" y="350"/></pattern><rect x="0" y="0" width="100%" height="100%" fill="url(#pattern_L1_8)"/></g><g fi:class="KUsePattern" transform="matrix(1 0 0 1 20 20)" opacity="0.55"><pattern id="pattern_UNKNOWN" width="350" height="350" patternUnits="userSpaceOnUse"><use xlink:href="#UNKNOWN" x="-350" y="-350"/><use xlink:href="#UNKNOWN" x="0" y="-350"/><use xlink:href="#UNKNOWN" x="350" y="-350"/><use xlink:href="#UNKNOWN" x="-350" y="0"/><use xlink:href="#UNKNOWN" x="0" y="0"/><use xlink:href="#UNKNOWN" x="350" y="0"/><use xlink:href="#UNKNOWN" x="-350" y="350"/><use xlink:href="#UNKNOWN" x="0" y="350"/><use xlink:href="#UNKNOWN" x="350" y="350"/></pattern><rect x="0" y="0" width="100%" height="100%" fill="url(#pattern_UNKNOWN)"/></g><g fi:class="KUsePattern" opacity="0.45"><pattern id="pattern_L1_9" width="350" height="350" patternUnits="userSpaceOnUse"><use xlink:href="#L1_9" x="-350" y="-350"/><use xlink:href="#L1_9" x="0" y="-350"/><use xlink:href="#L1_9" x="350" y="-350"/><use xlink:href="#L1_9" x="-350" y="0"/><use xlink:href="#L1_9" x="0" y="0"/><use xlink:href="#L1_9" x="350" y="0"/><use xlink:href="#L1_9" x="-350" y="350"/><use xlink:href="#L1_9" x="0" y="350"/><use xlink:href="#L1_9" x="350" y="350"/></pattern><rect x="0" y="0" width="100%" height="100%" fill="url(#pattern_L1_9)"/></g><g fi:class="KUsePattern" opacity="0.37"><pattern id="pattern_L1_10" width="350" height="350" patternUnits="userSpaceOnUse"><use xlink:href="#L1_10" x="-350" y="-350"/><use xlink:href="#L1_10" x="0" y="-350"/><use xlink:href="#L1_10" x="350" y="-350"/><use xlink:href="#L1_10" x="-350" y="0"/><use xlink:href="#L1_10" x="0" y="0"/><use xlink:href="#L1_10" x="350" y="0"/><use xlink:href="#L1_10" x="-350" y="350"/><use xlink:href="#L1_10" x="0" y="350"/><use xlink:href="#L1_10" x="350" y="350"/></pattern><rect x="0" y="0" width="100%" height="100%" fill="url(#pattern_L1_10)"/></g></svg>